<?xml version="1.0" encoding="UTF-8"?>
<!DOCTYPE svg PUBLIC "-//W3C//DTD SVG 1.1//EN" "http://www.w3.org/Graphics/SVG/1.1/DTD/svg11.dtd">
<!-- Creator: CorelDRAW -->
<svg xmlns="http://www.w3.org/2000/svg" xml:space="preserve" width="156.933mm" height="24.3064mm" version="1.1" style="shape-rendering:geometricPrecision; text-rendering:geometricPrecision; image-rendering:optimizeQuality; fill-rule:evenodd; clip-rule:evenodd"
viewBox="0 0 15693.3 2430.64"
 xmlns:xlink="http://www.w3.org/1999/xlink"
 xmlns:xodm="http://www.corel.com/coreldraw/odm/2003">
 <defs>
  <style type="text/css">
   <![CDATA[
    .fil0 {fill:#2B2A29;fill-rule:nonzero}
   ]]>
  </style>
 </defs>
 <g id="Katman_x0020_1">
  <metadata id="CorelCorpID_0Corel-Layer"/>
  <polygon class="fil0" points="675.46,42.68 675.46,2159.35 1642.07,2159.35 1642.07,2395.71 -5.4,2395.71 -5.4,42.68 "/>
  <polygon id="_1" class="fil0" points="4288.49,42.68 4288.49,279.04 3445.36,279.04 3445.36,991.65 4154.44,991.65 4154.44,1228.01 3445.36,1228.01 3445.36,2159.35 4433.13,2159.35 4433.13,2395.71 2764.49,2395.71 2764.49,42.68 "/>
  <polygon id="_2" class="fil0" points="7331.2,42.68 6714.43,1051.04 7464.08,2395.71 6706.19,2395.71 6254.64,1569.03 5753.69,2395.71 5446.78,2395.71 6110,1321.5 5400.33,42.68 6156.45,42.68 6576.84,811.74 7031.34,42.68 "/>
  <polygon id="_3" class="fil0" points="9309.1,42.68 9309.1,2395.71 8628.24,2395.71 8628.24,42.68 "/>
  <path id="_4" class="fil0" d="M11659.19 3.88c684.98,0 1027.17,405.1 1027.17,1215.32 0,810.21 -348.66,1215.32 -1045.99,1215.32 -697.32,0 -1045.98,-414.52 -1045.98,-1242.96 0,-791.99 355.13,-1187.68 1064.8,-1187.68zm-18.82 186.97c-128.76,0 -216.37,71.14 -261.64,212.84 -45.27,141.7 -68.2,413.34 -68.2,815.51 0,402.16 22.93,673.8 68.2,815.5 45.27,141.7 132.88,212.84 261.64,212.84 128.77,0 216.38,-71.14 261.65,-212.84 45.27,-141.7 68.2,-413.34 68.2,-815.5 0,-401 -22.93,-672.63 -68.2,-814.92 -45.27,-142.29 -132.88,-213.43 -261.65,-213.43z"/>
  <polygon id="_5" class="fil0" points="15687.91,42.68 15687.91,2395.71 15165.8,2395.71 14185.08,908.16 14185.08,2395.71 13955.77,2395.71 13955.77,42.68 14387.92,42.68 15458.6,1651.94 15458.6,42.68 "/>
 </g>
</svg>
