<?xml version="1.0" encoding="UTF-8"?>
<!DOCTYPE svg PUBLIC "-//W3C//DTD SVG 1.1//EN" "http://www.w3.org/Graphics/SVG/1.1/DTD/svg11.dtd">
<!-- Creator: CorelDRAW -->
<svg xmlns="http://www.w3.org/2000/svg" xml:space="preserve" width="156.933mm" height="24.3064mm" version="1.1" style="shape-rendering:geometricPrecision; text-rendering:geometricPrecision; image-rendering:optimizeQuality; fill-rule:evenodd; clip-rule:evenodd"
viewBox="0 0 15693.3 2430.64"
 xmlns:xlink="http://www.w3.org/1999/xlink"
 xmlns:xodm="http://www.corel.com/coreldraw/odm/2003">
 <defs>
  <style type="text/css">
   <![CDATA[
    .fil0 {fill:#2B2A29;fill-rule:nonzero}
   ]]>
  </style>
 </defs>
 <g id="Katman_x0020_1">
  <metadata id="CorelCorpID_0Corel-Layer"/>
  <path class="fil0" d="M11627.32 4.16l61.61 0c665.14,11.64 997.43,416.64 997.43,1215.04 0,810.21 -348.66,1215.32 -1045.99,1215.32 -697.32,0 -1045.98,-414.52 -1045.98,-1242.96 0,-780.04 344.51,-1175.64 1032.93,-1187.4zm13.05 186.69c-128.76,0 -216.37,71.14 -261.64,212.84 -45.27,141.7 -68.2,413.34 -68.2,815.51 0,402.16 22.93,673.8 68.2,815.5 45.27,141.7 132.88,212.84 261.64,212.84 128.77,0 216.38,-71.14 261.65,-212.84 45.27,-141.7 68.2,-413.34 68.2,-815.5 0,-401 -22.93,-672.63 -68.2,-814.92 -45.27,-142.29 -132.88,-213.43 -261.65,-213.43z"/>
 </g>
</svg>
