<svg width="420" height="300" viewBox="0 0 420 300" fill="none" xmlns="http://www.w3.org/2000/svg">

  <defs>
    <linearGradient id="glassStroke" x1="0" y1="0" x2="0" y2="1">
      <stop offset="0%" stop-color="#F6ECFF"/>
      <stop offset="100%" stop-color="#D4C2EA"/>
    </linearGradient>

    <linearGradient id="glassFill" x1="0" y1="0" x2="1" y2="1">
      <stop offset="0%" stop-color="#FFFFFF" stop-opacity="0.08"/>
      <stop offset="100%" stop-color="#FFFFFF" stop-opacity="0.02"/>
    </linearGradient>
  </defs>

  <path
    d="M30 260
       L150 120
       C165 95 165 55 165 20
       L255 20
       C255 55 255 95 270 120
       L390 260
       H30Z"
    fill="url(#glassFill)"
    stroke="url(#glassStroke)"
    stroke-width="7"
    stroke-linecap="round"
    stroke-linejoin="round"/>

  <path
    d="M50 250
       L152 125
       C165 105 165 75 165 40
       L255 40
       C255 75 255 105 268 125
       L370 250"
    stroke="#FFFFFF"
    stroke-opacity="0.08"
    stroke-width="3"
    stroke-linecap="round"
    stroke-linejoin="round"/>

  <path
    d="M165 28
       C185 15 235 15 255 28"
    stroke="#FFFFFF"
    stroke-opacity="0.16"
    stroke-width="5"
    stroke-linecap="round"/>

  <circle cx="175" cy="30" r="5" fill="#FFFFFF" fill-opacity="0.25"/>

</svg>
